<svg width="1360" height="600" viewBox="0 0 1360 600" fill="none" xmlns="http://www.w3.org/2000/svg"><rect x="138.65" y="47.42" width="176.813" height="555.109" rx="88.406" transform="rotate(45 138.65 47.42)" fill="url(#a)" fill-opacity=".7"/><rect x="279.55" y="159.547" width="176.813" height="555.109" rx="88.406" transform="rotate(-135 279.55 159.547)" fill="url(#b)" fill-opacity=".7"/><rect x="499.418" y="136.125" width="176.813" height="776.135" rx="88.406" transform="rotate(45 499.418 136.125)" fill="url(#c)" fill-opacity=".7"/><rect x="178.332" y="283.562" width="94.88" height="555.109" rx="47.44" transform="rotate(45 178.332 283.562)" fill="url(#d)" fill-opacity=".7"/><rect x="751.52" y="-116" width="94.88" height="555.109" rx="47.44" transform="rotate(45 751.52 -116)" fill="url(#e)" fill-opacity=".7"/><rect x="1323.52" y="321" width="94.88" height="555.109" rx="47.44" transform="rotate(45 1323.52 321)" fill="url(#f)" fill-opacity=".7"/><rect x="263.678" y="337.754" width="94.88" height="555.109" rx="47.44" transform="rotate(-135 263.678 337.754)" fill="url(#g)" fill-opacity=".7"/><g opacity=".5" filter="url(#h)"><circle cx="59.873" cy="59.873" r="59.873" transform="matrix(0 -1 -1 0 426.394 321.024)" fill="#AABFFF"/></g><g opacity=".5" filter="url(#i)"><circle cx="34.908" cy="34.908" r="34.908" transform="matrix(0 -1 -1 0 114.276 398.588)" fill="#AABFFF"/></g><rect x="1205.42" y="404.542" width="176.813" height="555.109" rx="88.406" transform="rotate(-135 1205.42 404.542)" fill="url(#j)" fill-opacity=".7"/><rect x="1064.52" y="292.415" width="176.813" height="555.109" rx="88.406" transform="rotate(45 1064.52 292.415)" fill="url(#k)" fill-opacity=".7"/><rect x="844.652" y="315.836" width="176.813" height="776.135" rx="88.406" transform="rotate(-135 844.652 315.836)" fill="url(#l)" fill-opacity=".7"/><rect x="1165.74" y="168.399" width="94.88" height="555.109" rx="47.44" transform="rotate(-135 1165.74 168.399)" fill="url(#m)" fill-opacity=".7"/><rect x="1080.39" y="114.207" width="94.88" height="555.109" rx="47.44" transform="rotate(45 1080.39 114.207)" fill="url(#n)" fill-opacity=".7"/><g opacity=".5" filter="url(#o)"><circle cx="59.873" cy="59.873" r="59.873" transform="matrix(0 1 1 0 917.676 130.937)" fill="#AABFFF"/></g><g opacity=".5" filter="url(#p)"><circle cx="34.908" cy="34.908" r="34.908" transform="matrix(0 1 1 0 1229.79 53.373)" fill="#AABFFF"/></g><defs><linearGradient id="a" x1="227.057" y1="47.42" x2="227.057" y2="602.529" gradientUnits="userSpaceOnUse"><stop stop-color="#C3D2FF"/><stop offset="1" stop-color="#F2F4FC" stop-opacity="0"/></linearGradient><linearGradient id="b" x1="367.956" y1="159.547" x2="367.956" y2="714.656" gradientUnits="userSpaceOnUse"><stop stop-color="#C3D2FF"/><stop offset="1" stop-color="#F2F4FC" stop-opacity="0"/></linearGradient><linearGradient id="c" x1="587.825" y1="136.125" x2="587.825" y2="912.26" gradientUnits="userSpaceOnUse"><stop stop-color="#C3D2FF"/><stop offset="1" stop-color="#F2F4FC" stop-opacity="0"/></linearGradient><linearGradient id="d" x1="225.772" y1="283.562" x2="225.772" y2="838.671" gradientUnits="userSpaceOnUse"><stop stop-color="#C3D2FF"/><stop offset="1" stop-color="#F2F4FC" stop-opacity="0"/></linearGradient><linearGradient id="e" x1="798.959" y1="-116" x2="798.959" y2="439.109" gradientUnits="userSpaceOnUse"><stop stop-color="#C3D2FF"/><stop offset="1" stop-color="#F2F4FC" stop-opacity="0"/></linearGradient><linearGradient id="f" x1="1370.96" y1="321" x2="1370.96" y2="876.109" gradientUnits="userSpaceOnUse"><stop stop-color="#C3D2FF"/><stop offset="1" stop-color="#F2F4FC" stop-opacity="0"/></linearGradient><linearGradient id="g" x1="311.118" y1="337.754" x2="311.118" y2="892.863" gradientUnits="userSpaceOnUse"><stop stop-color="#C3D2FF"/><stop offset="1" stop-color="#F2F4FC" stop-opacity="0"/></linearGradient><linearGradient id="j" x1="1293.83" y1="404.542" x2="1293.83" y2="959.651" gradientUnits="userSpaceOnUse"><stop stop-color="#C3D2FF"/><stop offset="1" stop-color="#F2F4FC" stop-opacity="0"/></linearGradient><linearGradient id="k" x1="1152.93" y1="292.415" x2="1152.93" y2="847.524" gradientUnits="userSpaceOnUse"><stop stop-color="#C3D2FF"/><stop offset="1" stop-color="#F2F4FC" stop-opacity="0"/></linearGradient><linearGradient id="l" x1="933.059" y1="315.836" x2="933.059" y2="1091.97" gradientUnits="userSpaceOnUse"><stop stop-color="#C3D2FF"/><stop offset="1" stop-color="#F2F4FC" stop-opacity="0"/></linearGradient><linearGradient id="m" x1="1213.18" y1="168.399" x2="1213.18" y2="723.508" gradientUnits="userSpaceOnUse"><stop stop-color="#C3D2FF"/><stop offset="1" stop-color="#F2F4FC" stop-opacity="0"/></linearGradient><linearGradient id="n" x1="1127.83" y1="114.207" x2="1127.83" y2="669.316" gradientUnits="userSpaceOnUse"><stop stop-color="#C3D2FF"/><stop offset="1" stop-color="#F2F4FC" stop-opacity="0"/></linearGradient><filter id="h" x="271.183" y="165.813" width="190.675" height="190.676" filterUnits="userSpaceOnUse" color-interpolation-filters="sRGB"><feFlood flood-opacity="0" result="BackgroundImageFix"/><feColorMatrix in="SourceAlpha" values="0 0 0 0 0 0 0 0 0 0 0 0 0 0 0 0 0 0 127 0" result="hardAlpha"/><feOffset/><feGaussianBlur stdDeviation="17.732"/><feComposite in2="hardAlpha" operator="out"/><feColorMatrix values="0 0 0 0 0.51 0 0 0 0 0.5 0 0 0 0 1 0 0 0 0.15 0"/><feBlend in2="BackgroundImageFix" result="effect1_dropShadow_0_1"/><feBlend in="SourceGraphic" in2="effect1_dropShadow_0_1" result="shape"/></filter><filter id="i" x="8.996" y="293.308" width="140.744" height="140.744" filterUnits="userSpaceOnUse" color-interpolation-filters="sRGB"><feFlood flood-opacity="0" result="BackgroundImageFix"/><feColorMatrix in="SourceAlpha" values="0 0 0 0 0 0 0 0 0 0 0 0 0 0 0 0 0 0 127 0" result="hardAlpha"/><feOffset/><feGaussianBlur stdDeviation="17.732"/><feComposite in2="hardAlpha" operator="out"/><feColorMatrix values="0 0 0 0 0.51 0 0 0 0 0.5 0 0 0 0 1 0 0 0 0.15 0"/><feBlend in2="BackgroundImageFix" result="effect1_dropShadow_0_1"/><feBlend in="SourceGraphic" in2="effect1_dropShadow_0_1" result="shape"/></filter><filter id="o" x="882.212" y="95.472" width="190.675" height="190.676" filterUnits="userSpaceOnUse" color-interpolation-filters="sRGB"><feFlood flood-opacity="0" result="BackgroundImageFix"/><feColorMatrix in="SourceAlpha" values="0 0 0 0 0 0 0 0 0 0 0 0 0 0 0 0 0 0 127 0" result="hardAlpha"/><feOffset/><feGaussianBlur stdDeviation="17.732"/><feComposite in2="hardAlpha" operator="out"/><feColorMatrix values="0 0 0 0 0.51 0 0 0 0 0.5 0 0 0 0 1 0 0 0 0.15 0"/><feBlend in2="BackgroundImageFix" result="effect1_dropShadow_0_1"/><feBlend in="SourceGraphic" in2="effect1_dropShadow_0_1" result="shape"/></filter><filter id="p" x="1194.33" y="17.909" width="140.744" height="140.744" filterUnits="userSpaceOnUse" color-interpolation-filters="sRGB"><feFlood flood-opacity="0" result="BackgroundImageFix"/><feColorMatrix in="SourceAlpha" values="0 0 0 0 0 0 0 0 0 0 0 0 0 0 0 0 0 0 127 0" result="hardAlpha"/><feOffset/><feGaussianBlur stdDeviation="17.732"/><feComposite in2="hardAlpha" operator="out"/><feColorMatrix values="0 0 0 0 0.51 0 0 0 0 0.5 0 0 0 0 1 0 0 0 0.15 0"/><feBlend in2="BackgroundImageFix" result="effect1_dropShadow_0_1"/><feBlend in="SourceGraphic" in2="effect1_dropShadow_0_1" result="shape"/></filter></defs></svg>